# xmcd
#
# Track frame offsets:
#	150
#	13799
#	28245
#	44069
#	58476
#	73203
#	92506
#	108148
#	123085
#	138498
#	154556
#	168801
#	183646
#	198474
#	214536
#	229626
#	245672
#	260713
#
# Disc length: 3664 seconds
#
# Revision: 0
# Processed by: cddbd v1.5.2PL0 Copyright (c) Steve Scherf et al.
# Submitted via: audiograbber 1.83.01
#
DISCID=060e4e12
DTITLE=Βασίλης Τσιτσάνης Νύχτες Μαγικές... - Cd 1 
DYEAR=2000
DGENRE=
TTITLE0=Γρηγόρης Μπιθικώτσης - Βούλα Γκίκα - Ότι Κι Αν Πω Δεν Σε Ξεχνώ 
TTITLE1=Πρόδρομος Τσαουσάκης - Ρένα Σταμου - Βασίλης Τσιτσάνης - Η Παρεξήγηση 
TTITLE2=Στέλιος Καζαντζίδης - Μπέμπα Φινέτη - Κλαψε Σήμερα Καρδιά Μου 
TTITLE3=Βασίλης Τσιτσάνης - Χαρούλα Λαμπράκη - Στην Επάνω Σκάλα Της Ζωής 
TTITLE4=Πρόδρομος Τσαουσάκης - Ο Ζητιάνος 
TTITLE5=Καίτη Γκρέυ - Θέλω Να Είναι Κυριακή 
TTITLE6=Στράτος Γιαγιουμτζής  - Γλυκοχαράζουν Τα Βουνά 
TTITLE7=Ρένα Σταμου - Βασίλης Τσιτσάνης  - Τσιγγάνε Σπάσε Το Βιολί
TTITLE8=Πρόδρομος Τσαουσάκης - Βασίλης Τσιτσάνης - Ο Ουρανός Έχει Μαυρήσει
TTITLE9=Σωτηρία Μπέλου - Περιπλανώμενη Ζωή 
TTITLE10=Στελλάκης - Περπινιάδης - Π. Χρυσίνης - Τρικαλινή Τσαχπίνα 
TTITLE11=Πρόδρομος Τσαουσάκης - Τι Το Ήθελα Να Μπλέξω 
TTITLE12=Ρίτα Αμπαζη - Στελλάκης - Περπινιάδης - Απόψε Να Μην Κοιμηθείς 
TTITLE13=Μαρίκα Νίνου - Τάκης Μπινης - Γεννήθηκα Για Να πονώ 
TTITLE14=Στράτος Γιαγιουμτζής - Στελλάκης - Περπινιάδης - Σε Φίνο Ακρογιάλι (Πα
TTITLE14=ραγουάη) 
TTITLE15=Σωτηρία Μπέλου - Βασίλης Τσιτσάνης - Μαχαλόμαγκας
TTITLE16=Μαρίκα Νίνου - Βασίλης Τσιτσάνης - Η Ζημιά
TTITLE17=Στράτος Γιαγιουμτζής - Βασίλης Τσιτσάνης - Αγαπώ Μια Παντρεμένη
EXTD=
EXTT0=
EXTT1=
EXTT2=
EXTT3=
EXTT4=
EXTT5=
EXTT6=
EXTT7=
EXTT8=
EXTT9=
EXTT10=
EXTT11=
EXTT12=
EXTT13=
EXTT14=
EXTT15=
EXTT16=
EXTT17=
PLAYORDER=
